<svg id="Layer_1" data-name="Layer 1" xmlns="http://www.w3.org/2000/svg" width="600" height="300" viewBox="0 0 600 300"><defs><style>.cls-1{fill:#bc4e45;}.cls-2{isolation:isolate;}.cls-3{fill:#fff;}.cls-4{fill:#b5b6b5;}.cls-5{fill:#000100;}</style></defs><title>pitch</title><polygon id="Fill-17" class="cls-1" points="215.233 101.624 385.124 101.624 385.124 165.869 215.233 165.869 215.233 101.624"/><g id="_13:30" data-name="13:30" class="cls-2"><g class="cls-2"><path class="cls-3" d="M280.716,126.609h-0.283l-6.485,4.7v-3.357l6.785-4.877H283.9v25.5h-3.18V126.609Z"/><path class="cls-3" d="M295.108,141.787h3.127c0.283,2.756,2.474,4.594,5.478,4.594a5.445,5.445,0,0,0,5.689-5.831c0-3.5-2.3-5.884-5.637-5.884a5.836,5.836,0,0,0-5.266,2.863h-2.986l1.4-14.454h14.224v2.845H299.4l-0.725,8.181h0.283a6.7,6.7,0,0,1,5.389-2.173c4.842,0,8.234,3.517,8.234,8.535,0,5.177-3.623,8.711-8.906,8.711C298.854,149.173,295.391,146.187,295.108,141.787Z"/><path class="cls-3" d="M318.618,132.864a2.3,2.3,0,1,1,2.3,2.3A2.3,2.3,0,0,1,318.618,132.864Zm0,13.588a2.3,2.3,0,1,1,2.3,2.3A2.3,2.3,0,0,1,318.618,146.452Z"/><path class="cls-3" d="M334.631,134.1h3.092c2.9,0,4.948-1.873,4.948-4.523,0-2.6-1.961-4.329-4.895-4.329s-4.859,1.626-5.125,4.365H329.56c0.318-4.417,3.481-7.139,8.34-7.139,4.453,0,8,2.969,8,6.679a5.722,5.722,0,0,1-4.47,5.937v0.283A6,6,0,0,1,347,141.7c0,4.206-3.94,7.474-8.976,7.474-5.177,0-8.747-2.88-8.977-7.244h3.075c0.283,2.721,2.58,4.47,5.866,4.47,3.357,0,5.743-2,5.743-4.789,0-2.951-2.244-4.789-5.866-4.789h-3.233V134.1Z"/><path class="cls-3" d="M351.762,135.744c0-8.058,3.817-13.252,9.736-13.252,5.937,0,9.736,5.195,9.736,13.288,0,8.146-3.8,13.341-9.736,13.341S351.762,143.89,351.762,135.744Zm16.274,0c0-6.343-2.58-10.46-6.538-10.46-3.94,0-6.538,4.135-6.538,10.443,0,6.449,2.562,10.619,6.538,10.619S368.036,142.176,368.036,135.744Z"/></g></g><path id="Fill-18" class="cls-3" d="M245.928,120.184a13.563,13.563,0,1,0,13.563,13.563,13.559,13.559,0,0,0-13.563-13.563"/><polygon id="Fill-19" class="cls-4" points="42.13 101.624 212.021 101.624 212.021 165.869 42.13 165.869 42.13 101.624"/><g id="_13:00" data-name="13:00" class="cls-2"><g class="cls-2"><path class="cls-3" d="M107.254,126.609h-0.283l-6.485,4.7v-3.357l6.785-4.877h3.163v25.5h-3.18V126.609Z"/><path class="cls-3" d="M121.646,141.787h3.127c0.283,2.756,2.474,4.594,5.478,4.594a5.445,5.445,0,0,0,5.689-5.831c0-3.5-2.3-5.884-5.637-5.884a5.836,5.836,0,0,0-5.266,2.863h-2.986l1.4-14.454h14.224v2.845H125.94l-0.725,8.181H125.5a6.7,6.7,0,0,1,5.389-2.173c4.842,0,8.234,3.517,8.234,8.535,0,5.177-3.623,8.711-8.906,8.711C125.393,149.173,121.929,146.187,121.646,141.787Z"/><path class="cls-3" d="M145.157,132.864a2.3,2.3,0,1,1,2.3,2.3A2.3,2.3,0,0,1,145.157,132.864Zm0,13.588a2.3,2.3,0,1,1,2.3,2.3A2.3,2.3,0,0,1,145.157,146.452Z"/><path class="cls-3" d="M154.826,135.744c0-8.058,3.817-13.252,9.736-13.252,5.938,0,9.736,5.195,9.736,13.288,0,8.146-3.8,13.341-9.736,13.341S154.826,143.89,154.826,135.744Zm16.274,0c0-6.343-2.58-10.46-6.538-10.46-3.94,0-6.538,4.135-6.538,10.443,0,6.449,2.562,10.619,6.538,10.619S171.1,142.176,171.1,135.744Z"/><path class="cls-3" d="M178.3,135.744c0-8.058,3.817-13.252,9.736-13.252,5.938,0,9.736,5.195,9.736,13.288,0,8.146-3.8,13.341-9.736,13.341S178.3,143.89,178.3,135.744Zm16.274,0c0-6.343-2.58-10.46-6.538-10.46-3.94,0-6.538,4.135-6.538,10.443,0,6.449,2.562,10.619,6.538,10.619S194.574,142.176,194.574,135.744Z"/></g></g><path id="Fill-20" class="cls-3" d="M72.468,144.454a10.707,10.707,0,1,1,10.707-10.707,10.709,10.709,0,0,1-10.707,10.707h0Zm0-24.27A13.563,13.563,0,1,0,86.03,133.747a13.559,13.559,0,0,0-13.563-13.563h0Z"/><polygon id="Fill-21" class="cls-4" points="387.979 101.624 557.87 101.624 557.87 165.869 387.979 165.869 387.979 101.624"/><g id="_14:00" data-name="14:00" class="cls-2"><g class="cls-2"><path class="cls-3" d="M453.461,126.609h-0.283l-6.485,4.7v-3.357l6.785-4.877h3.163v25.5h-3.18V126.609Z"/><path class="cls-3" d="M468.524,143.36a18.02,18.02,0,0,1-1.237-7.1c0-8.764,3.569-13.782,9.807-13.782a8.066,8.066,0,0,1,8.358,6.662h-3.269a5.112,5.112,0,0,0-5.124-3.834c-4.152,0-6.5,3.675-6.679,10.46h0.283a7.311,7.311,0,0,1,6.785-3.923,8.174,8.174,0,0,1,8.375,8.535,8.524,8.524,0,0,1-8.941,8.782C473.048,149.155,470.115,147.105,468.524,143.36Zm14.083-2.88a5.761,5.761,0,1,0-11.521-.106A5.763,5.763,0,1,0,482.607,140.479Z"/><path class="cls-3" d="M491.381,132.864a2.3,2.3,0,1,1,2.3,2.3A2.3,2.3,0,0,1,491.381,132.864Zm0,13.588a2.3,2.3,0,1,1,2.3,2.3A2.3,2.3,0,0,1,491.381,146.452Z"/><path class="cls-3" d="M501.05,135.744c0-8.058,3.817-13.252,9.736-13.252,5.938,0,9.736,5.195,9.736,13.288,0,8.146-3.8,13.341-9.736,13.341S501.05,143.89,501.05,135.744Zm16.274,0c0-6.343-2.58-10.46-6.538-10.46-3.94,0-6.538,4.135-6.538,10.443,0,6.449,2.562,10.619,6.538,10.619S517.324,142.176,517.324,135.744Z"/><path class="cls-3" d="M524.525,135.744c0-8.058,3.817-13.252,9.736-13.252,5.938,0,9.736,5.195,9.736,13.288,0,8.146-3.8,13.341-9.736,13.341S524.525,143.89,524.525,135.744Zm16.274,0c0-6.343-2.58-10.46-6.538-10.46-3.94,0-6.538,4.135-6.538,10.443,0,6.449,2.562,10.619,6.538,10.619S540.8,142.176,540.8,135.744Z"/></g></g><path id="Fill-22" class="cls-3" d="M418.674,144.454a10.707,10.707,0,1,1,10.707-10.707,10.709,10.709,0,0,1-10.707,10.707m0-24.27a13.563,13.563,0,1,0,13.563,13.563,13.559,13.559,0,0,0-13.563-13.563"/><polygon id="Fill-25" class="cls-4" points="42.13 34.525 212.021 34.525 212.021 98.769 42.13 98.769 42.13 34.525"/><g id="_11:00" data-name="11:00" class="cls-2"><g class="cls-2"><path class="cls-3" d="M107.254,59.507h-0.283l-6.485,4.7V60.85l6.785-4.877h3.163v25.5h-3.18V59.507Z"/><path class="cls-3" d="M126.947,67h3.092c2.9,0,4.948-1.873,4.948-4.523,0-2.6-1.961-4.329-4.895-4.329s-4.859,1.626-5.124,4.365h-3.092c0.318-4.417,3.481-7.139,8.34-7.139,4.453,0,8,2.969,8,6.679a5.722,5.722,0,0,1-4.47,5.937v0.283a6,6,0,0,1,5.566,6.326c0,4.206-3.94,7.474-8.977,7.474-5.177,0-8.746-2.88-8.976-7.244h3.075c0.283,2.721,2.58,4.47,5.866,4.47,3.357,0,5.743-2,5.743-4.789,0-2.951-2.244-4.789-5.866-4.789h-3.234V67Z"/><path class="cls-3" d="M145.157,65.762a2.3,2.3,0,1,1,2.3,2.3A2.3,2.3,0,0,1,145.157,65.762Zm0,13.588a2.3,2.3,0,1,1,2.3,2.3A2.3,2.3,0,0,1,145.157,79.351Z"/><path class="cls-3" d="M161.169,67h3.092c2.9,0,4.948-1.873,4.948-4.523,0-2.6-1.961-4.329-4.895-4.329s-4.859,1.626-5.124,4.365H156.1c0.318-4.417,3.481-7.139,8.34-7.139,4.453,0,8,2.969,8,6.679a5.722,5.722,0,0,1-4.47,5.937v0.283a6,6,0,0,1,5.566,6.326c0,4.206-3.94,7.474-8.977,7.474-5.177,0-8.746-2.88-8.976-7.244h3.075c0.283,2.721,2.58,4.47,5.866,4.47,3.357,0,5.743-2,5.743-4.789,0-2.951-2.244-4.789-5.866-4.789h-3.234V67Z"/><path class="cls-3" d="M178.3,68.643c0-8.058,3.817-13.252,9.736-13.252,5.938,0,9.736,5.195,9.736,13.288,0,8.146-3.8,13.341-9.736,13.341S178.3,76.788,178.3,68.643Zm16.274,0c0-6.343-2.58-10.46-6.538-10.46-3.94,0-6.538,4.135-6.538,10.443,0,6.449,2.562,10.619,6.538,10.619S194.574,75.074,194.574,68.643Z"/></g></g><path id="Fill-26" class="cls-3" d="M72.468,77.354A10.707,10.707,0,1,1,83.175,66.647,10.709,10.709,0,0,1,72.468,77.354h0Zm0-24.27A13.563,13.563,0,1,0,86.03,66.647,13.559,13.559,0,0,0,72.468,53.084h0Z"/><polygon id="Fill-27" class="cls-4" points="215.233 34.525 385.124 34.525 385.124 98.769 215.233 98.769 215.233 34.525"/><g id="_11:30" data-name="11:30" class="cls-2"><g class="cls-2"><path class="cls-3" d="M280.716,59.507h-0.283l-6.485,4.7V60.85l6.785-4.877H283.9v25.5h-3.18V59.507Z"/><path class="cls-3" d="M306.841,76.188H294.419v-2.9c2.279-4.046,6.326-10.443,10.92-17.316h4.612v17.37h3.622v2.845h-3.622v5.283h-3.11V76.188ZM297.67,73.36h9.188V58.924h-0.212c-2.615,3.8-5.937,9.064-8.977,14.224V73.36Z"/><path class="cls-3" d="M318.618,65.762a2.3,2.3,0,1,1,2.3,2.3A2.3,2.3,0,0,1,318.618,65.762Zm0,13.588a2.3,2.3,0,1,1,2.3,2.3A2.3,2.3,0,0,1,318.618,79.351Z"/><path class="cls-3" d="M328.287,68.643c0-8.058,3.817-13.252,9.736-13.252,5.937,0,9.736,5.195,9.736,13.288,0,8.146-3.8,13.341-9.736,13.341S328.287,76.788,328.287,68.643Zm16.274,0c0-6.343-2.58-10.46-6.538-10.46-3.94,0-6.538,4.135-6.538,10.443,0,6.449,2.562,10.619,6.538,10.619S344.561,75.074,344.561,68.643Z"/><path class="cls-3" d="M351.762,68.643c0-8.058,3.817-13.252,9.736-13.252,5.937,0,9.736,5.195,9.736,13.288,0,8.146-3.8,13.341-9.736,13.341S351.762,76.788,351.762,68.643Zm16.274,0c0-6.343-2.58-10.46-6.538-10.46-3.94,0-6.538,4.135-6.538,10.443,0,6.449,2.562,10.619,6.538,10.619S368.036,75.074,368.036,68.643Z"/></g></g><path id="Fill-28" class="cls-3" d="M245.928,77.354a10.707,10.707,0,1,1,10.707-10.707,10.709,10.709,0,0,1-10.707,10.707h0Zm0-24.27A13.563,13.563,0,1,0,259.49,66.647a13.559,13.559,0,0,0-13.563-13.563h0Z"/><polygon id="Fill-29" class="cls-4" points="387.979 34.525 557.87 34.525 557.87 98.769 387.979 98.769 387.979 34.525"/><g id="_12:00" data-name="12:00" class="cls-2"><g class="cls-2"><path class="cls-3" d="M453.461,59.507h-0.283l-6.485,4.7V60.85l6.785-4.877h3.163v25.5h-3.18V59.507Z"/><path class="cls-3" d="M479.586,76.188H467.164v-2.9c2.279-4.046,6.326-10.443,10.92-17.316H482.7v17.37h3.622v2.845H482.7v5.283h-3.11V76.188Zm-9.171-2.827H479.6V58.924h-0.212c-2.615,3.8-5.937,9.064-8.977,14.224V73.36Z"/><path class="cls-3" d="M491.363,65.762a2.3,2.3,0,1,1,2.3,2.3A2.3,2.3,0,0,1,491.363,65.762Zm0,13.588a2.3,2.3,0,1,1,2.3,2.3A2.3,2.3,0,0,1,491.363,79.351Z"/><path class="cls-3" d="M507.376,67h3.092c2.9,0,4.948-1.873,4.948-4.523,0-2.6-1.961-4.329-4.895-4.329s-4.859,1.626-5.125,4.365H502.3c0.318-4.417,3.481-7.139,8.34-7.139,4.453,0,8,2.969,8,6.679a5.722,5.722,0,0,1-4.47,5.937v0.283a6,6,0,0,1,5.566,6.326c0,4.206-3.94,7.474-8.976,7.474-5.177,0-8.747-2.88-8.977-7.244h3.075c0.283,2.721,2.58,4.47,5.866,4.47,3.357,0,5.743-2,5.743-4.789,0-2.951-2.244-4.789-5.866-4.789h-3.233V67Z"/><path class="cls-3" d="M524.507,68.643c0-8.058,3.817-13.252,9.736-13.252,5.937,0,9.736,5.195,9.736,13.288,0,8.146-3.8,13.341-9.736,13.341S524.507,76.788,524.507,68.643Zm16.274,0c0-6.343-2.58-10.46-6.538-10.46-3.94,0-6.538,4.135-6.538,10.443,0,6.449,2.562,10.619,6.538,10.619S540.781,75.074,540.781,68.643Z"/></g></g><path id="Fill-30" class="cls-3" d="M418.674,77.354a10.707,10.707,0,1,1,10.707-10.707,10.709,10.709,0,0,1-10.707,10.707h0Zm0-24.27a13.563,13.563,0,1,0,13.563,13.563,13.559,13.559,0,0,0-13.563-13.563h0Z"/><polygon id="Fill-33" class="cls-4" points="42.13 168.724 212.021 168.724 212.021 232.969 42.13 232.969 42.13 168.724"/><g id="_15:00" data-name="15:00" class="cls-2"><g class="cls-2"><path class="cls-3" d="M107.254,193.708h-0.283l-6.485,4.7V195.05l6.785-4.877h3.163v25.5h-3.18V193.708Z"/><path class="cls-3" d="M122.318,210.458a18.013,18.013,0,0,1-1.237-7.1c0-8.765,3.569-13.783,9.807-13.783a8.066,8.066,0,0,1,8.358,6.662h-3.269a5.112,5.112,0,0,0-5.124-3.834c-4.152,0-6.5,3.675-6.679,10.46h0.283a7.311,7.311,0,0,1,6.785-3.923,8.174,8.174,0,0,1,8.375,8.535,8.523,8.523,0,0,1-8.941,8.781C126.841,216.254,123.908,214.2,122.318,210.458Zm14.083-2.88a5.761,5.761,0,1,0-11.521-.105A5.763,5.763,0,1,0,136.4,207.578Z"/><path class="cls-3" d="M145.174,199.962a2.3,2.3,0,1,1,2.3,2.3A2.3,2.3,0,0,1,145.174,199.962Zm0,13.588a2.3,2.3,0,1,1,2.3,2.3A2.3,2.3,0,0,1,145.174,213.551Z"/><path class="cls-3" d="M161.188,201.2h3.092c2.9,0,4.948-1.873,4.948-4.523,0-2.6-1.961-4.329-4.895-4.329s-4.859,1.626-5.125,4.365h-3.092c0.318-4.417,3.481-7.139,8.34-7.139,4.453,0,8,2.969,8,6.679a5.721,5.721,0,0,1-4.47,5.937v0.283a6,6,0,0,1,5.566,6.326c0,4.205-3.94,7.474-8.976,7.474-5.177,0-8.747-2.88-8.977-7.244h3.075c0.283,2.721,2.58,4.47,5.866,4.47,3.357,0,5.743-2,5.743-4.788,0-2.951-2.244-4.788-5.866-4.788h-3.233V201.2Z"/><path class="cls-3" d="M178.318,202.843c0-8.058,3.817-13.252,9.736-13.252,5.937,0,9.736,5.195,9.736,13.288,0,8.146-3.8,13.341-9.736,13.341S178.318,210.988,178.318,202.843Zm16.274,0c0-6.343-2.58-10.46-6.538-10.46-3.94,0-6.538,4.135-6.538,10.443,0,6.449,2.562,10.619,6.538,10.619S194.592,209.274,194.592,202.843Z"/></g></g><path id="Fill-34" class="cls-3" d="M72.468,211.554a10.707,10.707,0,1,1,10.707-10.707,10.709,10.709,0,0,1-10.707,10.707h0Zm0-24.27A13.563,13.563,0,1,0,86.03,200.846a13.559,13.559,0,0,0-13.563-13.563h0Z"/><polygon id="Fill-35" class="cls-4" points="215.233 168.724 385.124 168.724 385.124 232.969 215.233 232.969 215.233 168.724"/><g id="_15:30" data-name="15:30" class="cls-2"><g class="cls-2"><path class="cls-3" d="M280.716,193.708h-0.283l-6.485,4.7V195.05l6.785-4.877H283.9v25.5h-3.18V193.708Z"/><path class="cls-3" d="M309.173,193.3v-0.283H296.009v-2.845h16.344v2.951L301.01,215.671h-3.34Z"/><path class="cls-3" d="M318.618,199.962a2.3,2.3,0,1,1,2.3,2.3A2.3,2.3,0,0,1,318.618,199.962Zm0,13.588a2.3,2.3,0,1,1,2.3,2.3A2.3,2.3,0,0,1,318.618,213.551Z"/><path class="cls-3" d="M328.287,202.843c0-8.058,3.817-13.252,9.736-13.252,5.937,0,9.736,5.195,9.736,13.288,0,8.146-3.8,13.341-9.736,13.341S328.287,210.988,328.287,202.843Zm16.274,0c0-6.343-2.58-10.46-6.538-10.46-3.94,0-6.538,4.135-6.538,10.443,0,6.449,2.562,10.619,6.538,10.619S344.561,209.274,344.561,202.843Z"/><path class="cls-3" d="M351.762,202.843c0-8.058,3.817-13.252,9.736-13.252,5.937,0,9.736,5.195,9.736,13.288,0,8.146-3.8,13.341-9.736,13.341S351.762,210.988,351.762,202.843Zm16.274,0c0-6.343-2.58-10.46-6.538-10.46-3.94,0-6.538,4.135-6.538,10.443,0,6.449,2.562,10.619,6.538,10.619S368.036,209.274,368.036,202.843Z"/></g></g><path id="Fill-36" class="cls-3" d="M245.928,211.554a10.707,10.707,0,1,1,10.707-10.707,10.709,10.709,0,0,1-10.707,10.707m0-24.27a13.563,13.563,0,1,0,13.563,13.563,13.559,13.559,0,0,0-13.563-13.563"/><polygon id="Fill-37" class="cls-4" points="387.979 168.724 557.87 168.724 557.87 232.969 387.979 232.969 387.979 168.724"/><g id="_16:00" data-name="16:00" class="cls-2"><g class="cls-2"><path class="cls-3" d="M453.461,193.708h-0.283l-6.485,4.7V195.05l6.785-4.877h3.163v25.5h-3.18V193.708Z"/><path class="cls-3" d="M481.918,193.3v-0.283H468.754v-2.845H485.1v2.951l-11.344,22.546h-3.34Z"/><path class="cls-3" d="M491.363,199.962a2.3,2.3,0,1,1,2.3,2.3A2.3,2.3,0,0,1,491.363,199.962Zm0,13.588a2.3,2.3,0,1,1,2.3,2.3A2.3,2.3,0,0,1,491.363,213.551Z"/><path class="cls-3" d="M507.376,201.2h3.092c2.9,0,4.948-1.873,4.948-4.523,0-2.6-1.961-4.329-4.895-4.329s-4.859,1.626-5.125,4.365H502.3c0.318-4.417,3.481-7.139,8.34-7.139,4.453,0,8,2.969,8,6.679a5.721,5.721,0,0,1-4.47,5.937v0.283a6,6,0,0,1,5.566,6.326c0,4.205-3.94,7.474-8.976,7.474-5.177,0-8.747-2.88-8.977-7.244h3.075c0.283,2.721,2.58,4.47,5.866,4.47,3.357,0,5.743-2,5.743-4.788,0-2.951-2.244-4.788-5.866-4.788h-3.233V201.2Z"/><path class="cls-3" d="M524.507,202.843c0-8.058,3.817-13.252,9.736-13.252,5.937,0,9.736,5.195,9.736,13.288,0,8.146-3.8,13.341-9.736,13.341S524.507,210.988,524.507,202.843Zm16.274,0c0-6.343-2.58-10.46-6.538-10.46-3.94,0-6.538,4.135-6.538,10.443,0,6.449,2.562,10.619,6.538,10.619S540.781,209.274,540.781,202.843Z"/></g></g><path id="Fill-38" class="cls-3" d="M418.674,211.554a10.707,10.707,0,1,1,10.707-10.707,10.709,10.709,0,0,1-10.707,10.707m0-24.27a13.563,13.563,0,1,0,13.563,13.563,13.559,13.559,0,0,0-13.563-13.563"/><g id="_1283344883806752884mac_hand" data-name="1283344883806752884mac_hand"><polygon id="Path-50" class="cls-3" points="246.979 248.572 221.755 222.843 216.334 209.574 204.829 198.592 206.923 187.068 212.258 181.139 223.273 185.528 238.172 193.74 238.432 140.205 244.993 132.326 253.843 137.922 258.066 142.178 259.421 168.069 292.84 169.07 298.64 175.942 308.427 177.036 313.968 182.474 310.834 215.688 305.227 220.56 303.158 231.487 297.992 235.786 295.071 251.421 249.832 252.049 246.979 248.572"/><g id="Group"><polygon id="Shape" class="cls-5" points="222.621 191.949 230.291 191.949 230.291 199.346 237.961 199.346 237.961 138.326 245.584 138.326 245.595 138.326 253.254 138.326 253.254 161.288 253.254 168.919 253.254 168.969 253.254 176.6 253.254 184.281 260.924 184.281 260.924 176.6 260.924 168.969 260.924 168.944 276.229 168.944 276.229 176.612 276.229 176.625 276.229 184.293 283.899 184.293 283.899 176.625 283.899 176.612 283.899 168.944 291.428 168.944 291.428 161.263 260.924 161.263 260.924 138.271 253.254 138.271 253.254 130.646 245.595 130.646 245.584 130.646 237.924 130.646 237.924 138.271 230.291 138.271 230.291 184.268 222.644 184.268 222.644 176.612 207.458 176.612 207.458 184.293 222.621 184.293 222.621 191.949"/><polygon id="Shape-2" data-name="Shape" class="cls-5" points="299.204 222.61 299.204 222.622 299.204 230.291 291.558 230.291 291.558 222.61 291.558 214.979 291.558 214.929 291.558 207.298 291.558 199.617 283.887 199.617 283.887 207.298 283.887 214.929 283.887 214.979 283.887 222.61 283.887 230.291 291.546 230.291 291.546 237.959 291.546 237.972 291.546 245.627 283.899 245.627 283.899 253.308 291.546 253.308 291.57 253.308 299.216 253.308 299.216 245.64 299.216 245.627 299.216 237.972 299.216 237.959 299.216 230.291 306.875 230.291 306.875 222.622 306.875 222.61 306.875 214.941 299.204 214.941 299.204 222.61"/><polygon id="Shape-3" data-name="Shape" class="cls-5" points="306.875 176.6 306.875 168.944 299.216 168.944 299.204 168.944 291.546 168.944 291.546 176.612 291.546 176.625 291.546 184.293 299.216 184.293 299.216 176.625 306.863 176.625 306.863 214.812 314.533 214.812 314.533 176.6 306.875 176.6"/><polygon id="Shape-4" data-name="Shape" class="cls-5" points="214.98 207.28 214.98 199.599 207.328 199.599 207.328 191.949 207.328 184.268 199.657 184.268 199.657 191.949 199.657 199.63 207.31 199.63 207.31 207.28 214.98 207.28"/><rect id="Rectangle-path" class="cls-5" x="276.229" y="237.946" width="7.67" height="7.681"/><polygon id="Shape-5" data-name="Shape" class="cls-5" points="253.254 207.298 253.254 214.929 253.254 214.979 253.254 222.61 253.254 230.291 260.924 230.291 260.924 222.61 260.924 214.979 260.924 214.929 260.924 207.298 260.924 199.617 253.254 199.617 253.254 207.298"/><polygon id="Shape-6" data-name="Shape" class="cls-5" points="268.571 207.298 268.571 214.929 268.571 214.979 268.571 222.61 268.571 230.291 276.241 230.291 276.241 222.61 276.241 214.979 276.241 214.929 276.241 207.298 276.241 199.617 268.571 199.617 268.571 207.298"/><polygon id="Shape-7" data-name="Shape" class="cls-5" points="245.608 245.615 245.608 237.934 237.949 237.934 237.949 230.291 230.291 230.291 230.291 222.622 222.644 222.622 222.644 214.967 222.644 207.286 214.974 207.286 214.974 214.967 214.974 222.647 222.621 222.647 222.621 230.303 230.279 230.303 230.279 237.972 237.937 237.972 237.937 245.615 237.937 253.296 245.608 253.296 245.608 253.308 276.112 253.308 276.112 245.627 245.608 245.627 245.608 245.615"/></g></g></svg>